<?xml version="1.0" standalone="no"?>
<!DOCTYPE svg PUBLIC "-//W3C//DTD SVG 20010904//EN"
 "http://www.w3.org/TR/2001/REC-SVG-20010904/DTD/svg10.dtd">
<svg version="1.0" xmlns="http://www.w3.org/2000/svg"
 width="700.000000pt" height="700.000000pt" viewBox="0 0 700.000000 700.000000"
 preserveAspectRatio="xMidYMid meet">
<metadata>
Created by potrace 1.14, written by Peter Selinger 2001-2017
</metadata>
<g transform="translate(0.000000,700.000000) scale(0.100000,-0.100000)"
fill="#000000" stroke="none">
<path d="M1325 6404 c-236 -41 -408 -141 -556 -324 -52 -65 -120 -193 -144
-270 -43 -143 -42 -110 -41 -2344 l2 -2131 23 -85 c44 -162 120 -298 231 -408
133 -133 314 -224 499 -250 25 -4 1009 -6 2186 -6 l2140 0 85 23 c163 44 289
114 403 226 125 122 209 278 245 454 18 89 18 177 17 2229 -1 1175 -5 2151 -9
2167 -60 259 -163 424 -351 564 -100 74 -207 119 -370 157 -16 4 -988 8 -2160
9 -1641 1 -2146 -1 -2200 -11z m4311 -588 c86 -28 154 -99 184 -191 11 -33 13
-428 13 -2125 0 -2375 9 -2149 -87 -2246 -97 -96 129 -87 -2246 -87 -1940 0
-2089 1 -2136 17 -86 28 -154 99 -184 191 -11 33 -13 428 -13 2126 0 1933 1
2089 17 2136 33 99 127 176 232 191 26 4 975 7 2109 6 1888 -1 2065 -3 2111
-18z"/>
<path d="M1940 5232 c-67 -23 -154 -114 -174 -182 -22 -73 -20 -128 6 -197 19
-51 44 -81 224 -263 112 -113 204 -209 204 -215 0 -5 -89 -100 -199 -210 -120
-121 -207 -218 -222 -245 -34 -66 -34 -186 0 -253 71 -139 223 -200 366 -147
56 21 82 44 392 354 372 371 376 376 376 501 0 121 -6 130 -372 497 -260 261
-336 332 -376 349 -63 28 -162 33 -225 11z"/>
<path d="M3114 3482 c-186 -65 -256 -294 -138 -449 35 -46 98 -91 148 -105 57
-16 1253 -18 1316 -2 83 20 140 61 183 132 90 146 35 329 -126 414 l-42 23
-645 2 c-596 2 -649 1 -696 -15z"/>
</g>
</svg>
